<svg t="1596959674230" class="icon" viewBox="0 0 1024 1024" version="1.1" xmlns="http://www.w3.org/2000/svg" p-id="14493" xmlns:xlink="http://www.w3.org/1999/xlink" width="100" height="100"><defs><style type="text/css"></style></defs><path d="M677.724115 6.676188H151.89487C137.27084 6.676188 129.640912 9.219497 129.640912 31.791369v964.55014c0 6.358274 7.629929 27.658491 22.253958 27.658491h726.114871c14.62403 0 14.62403-21.300217 14.62403-27.658491v-762.99286c0-12.716548 4.132878-16.849426 0-19.710648L685.989871 6.676188c-2.861223-2.861223-4.132878 0-8.265756 0z" fill="#E9E9E0" p-id="14494"></path><path d="M701.885556 0v229.215771h202.511021z" fill="#D9D7CA" p-id="14495"></path><path d="M66.058173 578.920832m61.675256 0l766.807824 0q61.675256 0 61.675256 61.675256l0 226.354548q0 61.675256-61.675256 61.675257l-766.807824 0q-61.675256 0-61.675256-61.675257l0-226.354548q0-61.675256 61.675256-61.675256Z" fill="#22B573" p-id="14496"></path><path d="M260.303439 794.784229a97.917417 97.917417 0 0 1-19.710649 65.808134 70.894753 70.894753 0 0 1-56.588637 22.889785 80.750078 80.750078 0 0 1-31.791369-5.722446v-42.918348a44.190003 44.190003 0 0 0 27.340577 9.219497q31.791369 0 31.791369-50.548277v-130.0267h48.958709zM487.293814 879.985098h-50.230363l-16.213598-49.594536H342.007257l-15.895684 49.594536H276.199123l79.160509-216.499224h54.045328zM409.722874 794.784229L383.971865 719.756597a86.790438 86.790438 0 0 1-2.225396-20.346476 78.206768 78.206768 0 0 1-3.814964 18.438994L352.180495 794.784229zM675.49872 663.485874l-75.345545 216.499224h-52.137846l-74.07389-216.499224h49.594536l46.733313 152.916486a103.004036 103.004036 0 0 1 4.450791 21.300217 114.766843 114.766843 0 0 1 4.768706-21.936045l46.733312-152.280658zM873.558949 879.985098h-50.230363l-16.213598-49.594536h-78.842596l-15.895684 49.594536h-49.91245l79.160509-216.499224H797.259663zM797.259663 794.784229l-24.479354-75.027632a86.790438 86.790438 0 0 1-3.49705-18.756907 78.206768 78.206768 0 0 1-3.814965 18.438994L738.445631 794.784229z" fill="#FFFFFF" p-id="14497"></path><path d="M591.251591 354.79168a173.898789 173.898789 0 0 1-35.288419 116.992238 127.165477 127.165477 0 0 1-100.77864 40.692953 144.014902 144.014902 0 0 1-54.045328-9.855325v-77.253027a78.524682 78.524682 0 0 0 48.640795 16.213598q59.131947 0 59.131946-89.651661V121.125116h82.021733z" fill="#22B573" p-id="14498"></path></svg>