<?xml version="1.0" standalone="no"?><!DOCTYPE svg PUBLIC "-//W3C//DTD SVG 1.1//EN" "http://www.w3.org/Graphics/SVG/1.1/DTD/svg11.dtd"><svg t="1596960103445" class="icon" viewBox="0 0 1024 1024" version="1.1" xmlns="http://www.w3.org/2000/svg" p-id="27782" xmlns:xlink="http://www.w3.org/1999/xlink" width="100" height="100"><defs><style type="text/css"></style></defs><path d="M843.52 319.552h-22.656v-39.36l-0.128-1.92a16.192 16.192 0 0 0-4.48-11.264L635.264 70.4a18.688 18.688 0 0 0-4.992-3.776c-1.216-0.512-2.432-1.088-3.648-1.472-0.384-0.128-0.64-0.256-0.896-0.256a22.144 22.144 0 0 0-4.16-0.576H176.256c-20.288 0-36.864 15.744-36.864 35.008v220.16h-22.592a54.144 54.144 0 0 0-37.248 14.656 49.024 49.024 0 0 0-15.488 35.392v388.032c0 27.584 23.552 50.112 52.608 50.112h22.592v113.92c0 19.264 16.576 35.008 36.864 35.008h607.872c20.352 0 36.864-15.744 36.864-34.944v-113.984h22.592c29.056 0 52.608-22.4 52.608-50.112V369.472a48.512 48.512 0 0 0-15.424-35.392 53.76 53.76 0 0 0-37.12-14.528zM176.192 99.392H602.88v178.944c0 4.672 1.92 9.152 5.44 12.352 3.456 3.2 8.192 5.12 12.992 5.12h162.688v23.616H176.256V99.392z m607.872 708.224v104.576H176.256v-104.576h607.872z m-338.56-355.584c67.456 0 107.328 44.096 107.328 114.048v30.08c0 69.76-40.256 112.576-107.712 112.576-67.2 0-107.072-42.816-107.072-112.64v-30.08c0-70.272 40.192-113.92 107.52-113.92z m-224.896 4.544c54.4 0 84.608 37.76 84.608 84.288 0 47.36-30.592 83.392-85.12 83.392H172.16V704h-52.352V456.576z m436.992 0l68.096 149.888h1.856l68.16-149.888h53.44V704h-47.36V545.28h-2.496l-56.512 124.288h-32.832l-56.704-124.352h-2.56V704h-46.72V456.576h53.632z m-212.288 40.448c-31.488 0-53.76 23.36-53.76 68.48v30.848c0 45.12 22.272 67.2 53.76 67.2 31.744 0 54.016-22.08 54.016-67.2v-30.848c0-45.12-22.272-68.48-54.016-68.48zM209.792 499.2h-37.76v83.392h27.776c32.448 0 52.224-10.56 52.224-41.728 0-26.816-16-41.664-42.24-41.664z" fill="#1872FF" p-id="27783"></path></svg>