<?xml version="1.0" standalone="no"?><!DOCTYPE svg PUBLIC "-//W3C//DTD SVG 1.1//EN" "http://www.w3.org/Graphics/SVG/1.1/DTD/svg11.dtd"><svg t="1596976247537" class="icon" viewBox="0 0 1024 1024" version="1.1" xmlns="http://www.w3.org/2000/svg" p-id="2507" xmlns:xlink="http://www.w3.org/1999/xlink" width="100" height="100"><defs><style type="text/css"></style></defs><path d="M896.9 64H126.2C90.9 64 62 92.9 62 128.2v768.6c0 35.3 28.9 64.2 64.2 64.2h770.6c35.3 0 64.2-28.9 64.2-64.2V128.2c0.1-35.3-28.8-64.2-64.1-64.2z m0.2 800c0 16-12.8 32-32 32h-707c-19.3 0-32.1-16-32.1-32.1V160.1c0-16 12.8-32.1 32.1-32.1h706.8c19.3 0 32.1 16 32.1 32.1l0.1 703.9z" p-id="2508" fill="#69c0ff"></path><path d="M377 242h221.4c29.2 0 54.9 4.7 77.2 14.2 22.3 9.5 41.1 21.9 56.4 37.2 15.3 15.3 26.9 32.5 34.8 51.6 7.9 19.1 11.8 38.1 11.8 57.1 0 20.7-4 40.7-12 59.9-8 19.2-19.7 36.4-35 51.4s-34.1 27-56.4 36.1c-22.3 9-47.9 13.6-76.8 13.6H469v231h-92V242z m92 258h129.2c11.6 0 22.8-2.5 33.6-7.6s20.1-12.1 28.1-20.9c8-8.9 14.4-19.3 19.2-31.2 4.8-11.9 7.2-24.7 7.2-38.4 0-13.4-2.3-25.8-6.8-37.3-4.5-11.5-10.7-21.4-18.5-29.7-7.9-8.3-17.2-14.8-27.9-19.6-10.8-4.8-22.4-7.2-34.9-7.2H469V500z" p-id="2509" fill="#69c0ff"></path></svg>