<?xml version="1.0" standalone="no"?><!DOCTYPE svg PUBLIC "-//W3C//DTD SVG 1.1//EN" "http://www.w3.org/Graphics/SVG/1.1/DTD/svg11.dtd"><svg t="1596959873715" class="icon" viewBox="0 0 1024 1024" version="1.1" xmlns="http://www.w3.org/2000/svg" p-id="21821" xmlns:xlink="http://www.w3.org/1999/xlink" width="100" height="100"><defs><style type="text/css"></style></defs><path d="M675.386525 0.648153H145.683858C130.938388 0.648153 118.982288 12.604252 118.982288 35.798854v968.687125c0 6.296339 11.9561 18.252439 26.70157 18.252438h731.486443c14.733896 0 26.689996-11.9561 26.689995-18.252438V237.513185c0-12.731568-1.689826-16.794095-4.629661-19.803375L686.740768 5.335684a16.11122 16.11122 0 0 0-11.354243-4.629661z m0 0" fill="#BFE2C6" p-id="21822"></path><path d="M684.784737 3.449097v216.216745H901.047777z m0 0M877.11243 1022.738417H145.683858A26.70157 26.70157 0 0 1 118.982288 996.036847v-283.566737h784.820138v283.566737a26.70157 26.70157 0 0 1-26.689996 26.70157z m0 0" fill="#4DB06E" p-id="21823"></path><path d="M325.673505 811.649023h44.606784v7.037085h-3.472246a19.351983 19.351983 0 0 0-6.006985 0.601856 2.048625 2.048625 0 0 0-1.539362 1.967605c0 1.261583 1.157415 3.472246 3.472245 6.701435l21.79413 29.849739 23.842754-29.849739q3.472246-4.294011 3.472246-6.35421 0-2.916686-6.863473-2.916686h-4.29401v-7.037085h37.916924v7.037085c-4.57179 0-7.870424 0.509263-9.861178 1.539362s-4.722254 3.611136-8.101907 7.731534l-30.497892 36.539599 35.879873 47.176246q4.629661 6.006985 7.800978 7.893572t9.69914 1.886587v7.037085h-44.757248v-7.037085h3.599562q7.893572 0 7.893572-2.569462c0-1.377324-1.307879-3.773174-3.946786-7.210697l-26.620551-35.683112-29.340477 36.886824a8.101907 8.101907 0 0 0-2.233811 4.803274q0 3.7616 6.68986 3.773173h3.472246v7.037085h-37.916924v-7.037085q6.68986 0 9.953771-1.631955t8.750059-8.101907l35.162276-42.372973-31.250212-41.342873c-3.553265-4.699106-6.331061-7.407458-8.321816-8.101906a27.569631 27.569631 0 0 0-9.016265-1.157416zM451.773897 811.649023h36.886824l34.490975 92.477479 33.657636-92.477479h35.64839v7.037085h-2.916687q-6.35421 0-8.923672 2.060199c-1.712975 1.377324-2.569462 4.629661-2.569461 9.780159v77.025985q0 8.923672 1.886586 11.412114c1.261583 1.655104 4.456049 2.488443 9.606547 2.488443h2.916687v7.037085h-44.606784v-7.037085h3.090298c4.629661 0 7.638941-0.717597 9.178303-2.141218s2.314831-4.548642 2.314831-9.351915v-85.903361l-38.032666 104.433579h-8.402834l-38.426187-103.114125v82.870932q0 8.229222 2.916687 10.717665c1.944458 1.655104 5.196795 2.488443 9.780159 2.488443h2.743074v7.037085h-41.238706v-7.037085h2.407424q8.402835 0 10.810258-2.835667c1.597233-1.886587 2.39585-5.567167 2.39585-11.06489v-76.389407q0-8.923672-2.39585-10.717665t-9.259322-1.805568h-3.946786zM609.437003 811.649023h45.301234v7.037085h-4.120399q-5.659761 0-8.240796 1.631955c-1.712975 1.08797-2.569462 3.854193-2.569462 8.321816v81.493608q0 6.863472 1.284731 8.101907t8.101906 1.284731h6.180598q15.613532 0 24.618222-6.944492t16.203814-23.252472l7.372735 2.569462-13.032496 36.551173h-81.100087v-7.037084h3.611136q6.678286 0 8.923672-1.967606t2.222237-9.351916v-79.387112q0-7.199123-1.793994-9.606547c-1.157415-1.608807-4.328733-2.407424-9.351915-2.407423h-3.611136z" fill="#FFFFFF" p-id="21824"></path><path d="M400.951793 561.612605a20.20847 20.20847 0 0 1-15.520938-7.233845l-78.287568-93.206651a20.254767 20.254767 0 0 1 31.018729-26.007121l78.287567 93.206651a20.243193 20.243193 0 0 1-15.49779 33.275688z" fill="#4DB06E" p-id="21825"></path><path d="M322.641077 468.417529a20.266341 20.266341 0 0 1-15.49779-33.252541l78.287568-93.20665a20.261711 20.261711 0 0 1 31.018728 26.076565l-78.287567 93.206651a20.220045 20.220045 0 0 1-15.520939 7.175975zM676.601811 468.417529a20.220045 20.220045 0 0 1-15.520939-7.233846l-78.287568-93.14878a20.254767 20.254767 0 0 1 31.018729-26.053417l78.287568 93.183502a20.254767 20.254767 0 0 1-15.49779 33.287263z" fill="#4DB06E" p-id="21826"></path><path d="M598.291094 561.612605a20.243193 20.243193 0 0 1-15.49779-33.275689l78.287568-93.171928a20.254767 20.254767 0 0 1 31.018729 26.053418l-78.287568 93.160354a20.20847 20.20847 0 0 1-15.520939 7.233845zM470.084206 582.573395a20.289489 20.289489 0 0 1-19.676059-25.081188l55.937879-228.311734a20.258239 20.258239 0 1 1 39.352119 9.641269l-55.949453 228.288585a20.266341 20.266341 0 0 1-19.664486 15.463068z" fill="#4DB06E" p-id="21827"></path></svg>